<?xml version="1.0" standalone="no"?>
<!DOCTYPE svg PUBLIC "-//W3C//DTD SVG 20010904//EN"
 "http://www.w3.org/TR/2001/REC-SVG-20010904/DTD/svg10.dtd">
<svg version="1.0" xmlns="http://www.w3.org/2000/svg"
 width="300.000000pt" height="278.000000pt" viewBox="0 0 300.000000 278.000000"
 preserveAspectRatio="xMidYMid meet">
<metadata>
Created by potrace 1.10, written by Peter Selinger 2001-2011
</metadata>
<g transform="translate(0.000000,278.000000) scale(0.100000,-0.100000)"
fill="#000000" stroke="none">
<path d="M2450 2552 c0 -7 4 -12 8 -12 8 0 32 -43 32 -57 0 -3 -12 2 -26 11
-14 10 -33 15 -42 13 -14 -4 -14 -5 2 -6 52 -3 125 -98 96 -124 -10 -9 -11 -9
-6 1 4 6 3 12 -3 12 -5 0 -18 3 -28 7 -15 6 -16 4 -6 -9 7 -8 9 -18 5 -23 -4
-4 8 -5 26 -2 23 5 32 3 32 -7 0 -7 11 -39 25 -72 18 -44 24 -52 25 -34 1 22
3 21 16 -12 17 -41 38 -42 48 -3 6 24 -5 59 -32 103 -12 19 -17 20 -30 10 -10
-8 -13 -9 -9 -1 11 19 -3 45 -18 33 -9 -8 -14 -6 -19 6 -8 21 -8 24 5 24 5 0
7 -5 3 -12 -4 -7 -3 -8 5 -4 16 10 2 29 -16 22 -11 -4 -13 -2 -9 9 3 8 1 15
-5 15 -6 0 -7 5 -3 12 5 7 11 5 21 -7 7 -11 13 -15 13 -10 0 5 16 -8 35 -29
19 -21 39 -35 44 -32 5 4 12 2 16 -3 3 -6 11 -8 18 -5 9 3 16 -19 25 -73 6
-42 10 -79 7 -81 -3 -3 -5 4 -5 16 0 12 -4 22 -10 22 -13 0 -13 -18 3 -71 7
-24 10 -57 6 -74 -4 -16 -7 -39 -8 -50 -1 -16 1 -17 9 -5 5 8 10 30 10 48 0
34 15 44 23 15 9 -36 7 45 -4 127 -7 47 -12 94 -13 105 0 11 -13 27 -27 35
-42 24 -91 69 -85 78 3 5 -11 24 -32 43 l-37 34 29 -32 c33 -36 23 -45 -13
-12 -12 12 -29 22 -36 23 -8 1 -26 13 -40 26 -14 13 -25 18 -25 12z m217 -175
c5 -9 3 -9 -9 0 -8 7 -19 9 -23 5 -5 -4 -5 -1 -1 6 6 9 2 12 -10 10 -11 -2
-18 2 -17 8 1 6 -22 28 -52 49 -29 22 -51 43 -49 47 5 8 147 -102 161 -125z"/>
<path d="M2590 2504 c0 -2 25 -19 55 -40 49 -32 88 -74 69 -74 -3 0 -1 -6 5
-13 6 -8 9 -17 6 -20 -3 -4 -2 -5 2 -2 3 3 12 0 20 -6 9 -9 13 -47 14 -148 2
-121 3 -128 9 -66 13 113 14 196 4 203 -5 4 -10 14 -12 22 -2 8 -13 25 -25 36
-12 12 -29 31 -37 44 -23 34 -43 58 -34 40 7 -13 5 -13 -9 -1 -18 15 -23 26
-7 16 6 -3 10 -2 10 2 0 5 -16 9 -35 9 -19 0 -35 -1 -35 -2z"/>
<path d="M2720 2506 c0 -5 23 -39 51 -77 32 -43 48 -73 43 -81 -5 -7 -9 -19
-10 -28 -23 -210 -25 -263 -10 -278 9 -9 18 -13 21 -11 6 7 13 108 14 207 1
56 4 71 14 66 9 -6 9 -4 -1 8 -8 10 -9 17 -3 20 6 1 -15 39 -45 83 -58 85 -74
104 -74 91z"/>
<path d="M2260 2491 c0 -6 5 -13 11 -16 6 -4 13 -15 17 -26 4 -11 12 -15 19
-11 9 6 6 15 -11 35 -24 28 -36 34 -36 18z"/>
<path d="M2311 2487 c-1 -5 4 -17 9 -27 8 -14 6 -21 -5 -28 -14 -7 -14 -11 5
-33 l21 -24 -4 28 c-3 22 -2 25 9 16 9 -7 11 -21 8 -36 -5 -17 -1 -29 12 -39
17 -14 14 -15 -38 -9 -49 5 -59 4 -78 -15 -28 -28 -19 -37 14 -15 14 9 38 16
53 15 56 -4 72 0 78 20 9 27 21 25 40 -7 13 -23 15 -24 10 -5 -9 30 1 28 19
-5 9 -16 16 -21 16 -13 0 9 6 5 15 -10 8 -14 14 -20 14 -15 0 16 -28 61 -29
46 0 -28 -11 -2 -15 37 -3 29 0 42 10 46 8 3 15 1 15 -4 0 -6 5 -10 10 -10 18
0 10 19 -11 25 -16 5 -28 0 -46 -21 -16 -19 -26 -25 -29 -16 -3 6 -10 12 -15
12 -6 0 -7 -4 -4 -10 3 -5 0 -7 -9 -4 -8 3 -17 12 -20 21 -4 11 -2 13 9 9 22
-8 19 18 -5 39 -11 10 -20 13 -20 7 0 -20 -16 -13 -28 11 -6 12 -11 18 -11 14z"/>
<path d="M2781 2473 c7 -12 22 -21 33 -20 15 2 30 -17 64 -81 24 -46 42 -85
40 -88 -3 -2 -17 5 -31 17 -18 14 -27 16 -27 7 1 -14 30 -57 30 -43 0 5 7 0
16 -11 8 -10 13 -12 9 -4 -4 8 1 6 9 -4 9 -11 16 -24 16 -29 0 -4 4 -6 9 -2 5
3 12 -4 16 -15 4 -11 10 -18 15 -15 5 3 11 -3 13 -12 4 -14 5 -13 6 4 1 26
-35 90 -41 72 -2 -6 -26 36 -53 95 -44 96 -76 138 -93 122 -3 -3 -14 2 -25 11
-19 18 -19 17 -6 -4z"/>
<path d="M2225 2460 c-7 -11 41 -77 72 -100 15 -12 16 -12 6 0 -22 24 -14 34
9 14 12 -10 2 7 -23 38 -46 59 -54 65 -64 48z"/>
<path d="M2188 2408 c-23 -24 -23 -37 1 -35 11 0 17 5 15 9 -3 4 -1 8 5 8 5 0
15 -8 20 -17 7 -12 10 -14 11 -4 0 11 3 11 15 1 8 -7 15 -8 15 -2 0 5 -15 21
-32 34 -32 23 -34 24 -50 6z"/>
<path d="M2886 2416 c3 -8 12 -17 20 -20 9 -3 13 -10 9 -16 -3 -5 1 -22 10
-37 9 -16 14 -20 11 -10 -3 9 -8 25 -12 35 -3 9 11 -12 30 -48 41 -76 44 -76
13 2 -25 62 -41 84 -68 99 -15 7 -17 6 -13 -5z"/>
<path d="M2185 2340 c8 -13 45 -13 65 0 11 7 3 10 -28 10 -26 0 -41 -4 -37
-10z"/>
<path d="M2500 2334 c1 -17 39 -79 40 -64 0 13 2 13 9 0 15 -22 3 -30 -45 -30
-46 0 -101 -23 -143 -59 -32 -28 -19 -27 32 3 23 14 55 30 71 36 27 10 28 9
24 -14 -3 -14 -1 -27 3 -28 5 -2 10 -15 11 -30 1 -15 6 -24 10 -22 4 3 5 25 2
49 -4 39 -2 45 13 45 36 0 48 16 35 45 -7 16 -17 23 -24 19 -7 -5 -9 -2 -5 8
3 9 -3 24 -14 34 -10 9 -19 13 -19 8z"/>
<path d="M2400 2303 c0 -5 5 -14 12 -21 9 -9 7 -12 -11 -12 -12 0 -20 4 -16 9
7 12 -21 21 -63 19 -29 -1 -60 -18 -32 -18 6 0 16 -13 21 -30 7 -19 18 -30 30
-30 20 0 26 15 9 25 -24 15 -4 20 73 17 80 -2 81 -2 44 12 -20 7 -44 19 -52
26 -8 7 -15 8 -15 3z"/>
<path d="M2568 2163 c-28 -30 -64 -110 -55 -120 4 -3 16 16 27 42 11 26 34 60
51 76 18 17 25 29 17 29 -8 0 -26 -12 -40 -27z"/>
<path d="M2880 2163 c0 -6 5 -15 10 -18 6 -3 10 -36 11 -73 1 -60 2 -64 11
-35 12 36 4 91 -17 119 -8 10 -15 14 -15 7z"/>
<path d="M1648 2078 c7 -7 33 -13 57 -13 23 0 41 -4 37 -9 -3 -5 5 -7 16 -4
12 4 20 3 17 -1 -2 -5 7 -13 20 -19 l25 -12 -17 26 c-20 32 -43 40 -113 43
-45 2 -53 0 -42 -11z"/>
<path d="M1569 2076 c-2 -2 -20 -7 -39 -10 -99 -17 -155 -41 -166 -71 -3 -7
-22 -31 -43 -53 -50 -53 -80 -143 -83 -253 -3 -82 -2 -86 25 -111 16 -15 27
-35 25 -45 -1 -10 1 -23 5 -30 4 -7 8 -29 8 -50 1 -21 3 -46 6 -57 8 -30 23 2
23 50 0 63 27 139 55 158 14 9 25 14 25 11 0 -3 9 -1 20 5 11 6 20 19 20 29 0
26 41 44 93 40 28 -3 42 0 37 5 -5 5 -25 10 -45 11 -42 3 -122 -35 -117 -55 2
-7 -3 -10 -11 -7 -18 7 -59 -29 -79 -68 l-16 -29 -21 34 c-11 19 -22 47 -22
63 -1 15 -2 41 -3 57 0 17 4 30 9 30 6 0 10 23 10 51 0 36 5 54 17 63 9 6 18
25 20 41 2 17 8 29 16 28 6 -2 12 3 12 11 0 15 27 30 50 27 12 -1 12 0 1 7
-16 12 -2 43 31 66 27 19 42 21 32 4 -5 -8 -2 -9 10 -5 10 4 30 9 44 12 23 5
24 4 7 -4 -20 -9 -20 -10 1 -10 13 -1 25 8 32 24 6 14 16 25 22 25 6 0 9 -4 5
-9 -3 -6 3 -15 14 -21 16 -8 22 -7 30 9 6 10 7 21 4 25 -7 7 -57 8 -64 2z"/>
<path d="M1847 2021 c17 -16 29 -31 27 -34 -2 -2 2 -10 11 -17 8 -7 15 -18 15
-25 0 -14 28 -29 47 -26 6 1 14 -8 18 -19 3 -11 10 -20 15 -20 14 0 21 18 11
25 -6 3 -8 12 -4 20 3 9 -1 15 -8 15 -8 0 -22 14 -31 30 -17 30 -62 55 -79 44
-5 -3 -8 0 -7 6 2 7 -8 16 -22 21 -23 8 -23 7 7 -20z"/>
<path d="M2777 1968 c-3 -39 -5 -74 -3 -76 2 -2 9 27 15 64 7 40 8 71 3 76 -5
5 -11 -20 -15 -64z"/>
<path d="M1739 2011 c10 -10 29 -22 40 -26 12 -3 19 -10 16 -15 -3 -5 14 -14
37 -21 37 -10 40 -13 20 -18 -21 -6 -20 -7 11 -16 l33 -11 -24 43 c-13 24 -34
48 -45 55 -21 10 -20 9 2 -16 14 -14 20 -26 14 -26 -6 0 -13 4 -15 8 -6 15
-75 62 -91 62 -15 0 -15 -2 2 -19z"/>
<path d="M2866 1928 c60 -87 91 -124 59 -73 -30 49 -106 155 -111 155 -3 0 20
-37 52 -82z"/>
<path d="M1454 1989 c-30 -11 5 -21 41 -11 l30 9 -26 5 c-14 2 -34 1 -45 -3z"/>
<path d="M2026 1902 c6 -4 14 -15 17 -26 4 -10 13 -16 21 -13 8 3 17 1 20 -6
3 -8 5 -8 5 2 1 17 -37 51 -58 51 -10 0 -12 -3 -5 -8z"/>
<path d="M2977 1862 c-18 -20 -22 -42 -9 -42 11 0 37 48 30 55 -3 3 -12 -3
-21 -13z"/>
<path d="M1863 1856 c-26 -12 -32 -31 -7 -22 9 3 27 9 40 12 13 3 21 10 18 15
-7 11 -22 10 -51 -5z"/>
<path d="M1960 1853 c0 -11 30 -37 55 -47 13 -5 16 -9 8 -14 -8 -5 -6 -15 8
-32 l19 -25 -9 26 c-5 15 -7 29 -4 32 3 3 -4 12 -16 19 -12 7 -21 19 -21 27 0
8 -3 11 -7 8 -3 -4 -12 -2 -20 4 -7 6 -13 7 -13 2z"/>
<path d="M2060 1821 c0 -34 15 -42 23 -11 3 10 -1 24 -9 31 -11 9 -14 6 -14
-20z"/>
<path d="M1560 1821 c0 -6 11 -13 25 -17 14 -3 23 -9 20 -13 -2 -4 17 -7 43
-7 26 0 57 -3 69 -7 18 -7 22 -5 17 7 -4 11 0 16 12 16 12 0 15 3 8 10 -13 13
-87 15 -132 5 -21 -4 -38 -2 -47 5 -10 9 -15 9 -15 1z"/>
<path d="M1801 1802 c-8 -14 -5 -18 11 -19 14 -1 18 3 14 13 -3 9 -1 12 4 9 6
-3 10 -1 10 4 0 18 -29 12 -39 -7z"/>
<path d="M2929 1785 c-7 -19 -17 -35 -21 -35 -11 0 -48 -62 -48 -80 0 -8 9 5
20 29 11 24 23 41 26 38 3 -3 0 -15 -6 -27 -6 -12 -10 -24 -7 -26 2 -2 12 15
22 38 28 65 35 71 52 51 10 -13 10 -9 -2 15 -8 17 -17 32 -20 32 -2 0 -9 -16
-16 -35z"/>
<path d="M1877 1786 c4 -5 0 -7 -9 -4 -9 4 -15 0 -15 -8 0 -10 6 -13 16 -8 62
25 101 -8 101 -86 0 -33 5 -50 15 -54 12 -4 13 -2 2 14 -9 16 -9 24 1 40 6 11
12 23 12 27 0 5 -5 1 -10 -7 -7 -12 -10 -8 -10 15 0 23 3 27 10 15 5 -8 10
-10 10 -5 0 6 -10 22 -23 38 -16 20 -33 28 -64 30 -26 2 -40 -1 -36 -7z"/>
<path d="M1750 1771 c0 -10 35 -21 65 -20 13 0 8 5 -15 14 -43 17 -50 17 -50
6z"/>
<path d="M1696 1725 c-17 -13 -34 -21 -39 -18 -6 3 -7 1 -3 -5 9 -15 -23 -31
-68 -34 -20 -1 -36 -5 -36 -9 0 -16 23 -21 63 -15 34 6 48 15 71 46 25 33 34
38 54 33 18 -4 23 -2 18 6 -4 6 -11 9 -16 6 -4 -3 -10 -1 -12 4 -1 5 -16 -1
-32 -14z"/>
<path d="M2149 1734 c-10 -12 -10 -17 0 -23 10 -6 9 -12 -4 -25 -14 -14 -15
-19 -3 -33 9 -12 9 -15 1 -9 -9 5 -13 0 -13 -13 0 -13 5 -19 14 -15 8 3 16 0
19 -8 2 -7 3 -5 2 5 -2 10 3 17 14 17 28 0 53 52 26 56 -12 2 -14 -1 -5 -11 8
-10 6 -15 -9 -20 -25 -8 -44 2 -35 17 7 11 15 78 9 78 -1 0 -8 -7 -16 -16z"/>
<path d="M2600 1739 c0 -2 34 -38 76 -79 82 -80 86 -78 17 12 -39 51 -78 91
-59 60 9 -16 -7 -15 -22 0 -7 7 -12 10 -12 7z"/>
<path d="M2679 1713 c45 -61 72 -88 65 -68 -8 24 1 15 40 -38 15 -21 30 -36
33 -33 3 3 -8 22 -24 43 -35 44 -58 85 -55 96 1 4 -5 7 -15 7 -15 0 -15 -2 1
-19 11 -12 13 -21 7 -25 -6 -4 -21 9 -33 28 -13 20 -27 36 -31 36 -5 0 1 -12
12 -27z"/>
<path d="M2510 1710 c0 -6 4 -10 8 -10 5 0 17 -7 28 -16 20 -16 21 -16 -46 3
-8 2 -4 -3 10 -12 l25 -16 -35 6 c-29 5 -32 4 -17 -5 10 -7 29 -9 43 -6 13 4
34 1 45 -5 17 -9 20 -8 14 2 -6 9 -3 11 8 6 31 -12 18 1 -33 32 -27 17 -50 26
-50 21z"/>
<path d="M2594 1711 c4 -5 1 -11 -5 -13 -6 -2 7 -15 28 -29 21 -14 37 -31 35
-38 -1 -7 2 -9 8 -6 6 4 21 -1 33 -11 12 -10 -5 10 -38 44 -56 59 -73 74 -61
53z"/>
<path d="M2055 1632 c-49 -6 -53 -15 -54 -121 -1 -143 -14 -195 -65 -271 -24
-36 -51 -80 -60 -97 -9 -18 -20 -33 -25 -33 -12 0 -44 -50 -37 -57 3 -3 12 0
20 6 9 8 16 8 20 2 4 -6 -9 -28 -29 -49 -19 -22 -35 -43 -35 -47 0 -5 -7 -16
-15 -25 -13 -14 -11 -20 17 -55 29 -35 30 -38 10 -33 -12 4 -22 3 -22 -1 0
-18 14 -19 42 -5 25 13 27 17 14 29 -8 8 -22 15 -30 15 -22 0 -10 25 19 38 20
9 24 8 29 -14 8 -32 25 -22 18 11 -6 34 -17 39 -47 19 -30 -20 -35 -2 -9 34
18 26 59 27 59 2 0 -10 8 -14 22 -12 12 2 24 -2 28 -8 3 -5 2 -10 -3 -10 -5 0
-12 -9 -15 -19 -3 -14 -1 -18 9 -14 8 3 14 9 14 14 0 5 7 9 15 9 17 0 20 -16
5 -25 -27 -16 -7 -30 45 -31 47 0 53 1 42 14 -6 8 -23 20 -37 26 -14 6 -44 25
-67 41 -32 23 -44 39 -51 70 -7 35 -4 49 27 112 33 67 36 71 52 57 10 -9 23
-13 30 -8 9 5 6 10 -10 16 -28 10 -24 38 14 98 15 24 22 46 18 60 -4 16 -3 21
5 16 7 -4 12 -17 13 -29 0 -21 1 -21 9 -2 12 27 12 75 1 75 -5 0 -12 -6 -14
-12 -4 -8 -6 -7 -6 4 -1 9 6 23 14 32 8 8 15 19 15 24 0 6 9 32 20 58 19 43
22 45 34 29 12 -16 13 -16 19 -1 4 9 4 23 1 31 -7 16 -24 21 -24 6 0 -15 -57
-24 -77 -12 -16 9 -15 11 11 21 16 6 37 12 47 13 10 2 21 6 24 8 5 6 -4 6 -50
1z"/>
<path d="M1462 1608 c-20 -20 -14 -28 12 -17 19 9 36 7 77 -6 80 -26 119 -46
119 -61 0 -17 -23 -31 -28 -16 -12 37 -155 57 -186 27 -6 -6 -18 -9 -25 -7
-12 4 -12 3 -1 -10 16 -16 66 -16 115 1 27 10 26 11 -19 7 -30 -2 -43 -1 -35
5 22 14 93 10 115 -6 18 -14 18 -15 -6 -12 -19 1 -25 -3 -25 -18 0 -16 7 -20
40 -21 29 -1 39 -5 37 -15 -2 -8 8 0 22 16 27 32 33 60 16 70 -6 4 -7 11 -4
17 4 6 2 8 -4 4 -6 -3 -17 2 -24 12 -8 11 -37 22 -79 30 -83 15 -102 15 -117
0z"/>
<path d="M2522 1601 c-21 -13 16 -19 79 -13 40 4 49 7 34 13 -27 10 -97 11
-113 0z"/>
<path d="M2915 1588 c3 -10 8 -25 11 -33 4 -10 2 -15 -7 -13 -8 2 -13 -1 -12
-7 4 -19 38 -80 46 -82 5 -1 12 -5 15 -9 4 -4 1 -4 -5 0 -8 4 -13 1 -13 -8 0
-18 8 -20 28 -8 10 7 3 28 -28 93 -22 46 -38 76 -35 67z"/>
<path d="M1803 1572 c-14 -14 -18 -42 -5 -42 4 1 35 7 70 14 58 13 64 12 87
-6 32 -25 35 0 4 28 -25 23 -135 27 -156 6z"/>
<path d="M2628 1550 c-51 -52 -48 -66 4 -18 23 21 48 38 57 38 14 0 14 2 1 10
-21 13 -20 13 -62 -30z"/>
<path d="M2495 1570 c4 -6 12 -7 18 -4 7 4 8 3 4 -2 -5 -5 -12 -9 -15 -9 -14
-1 -88 -53 -102 -71 -12 -16 -10 -15 10 2 46 39 51 36 20 -12 -16 -26 -30 -57
-30 -68 1 -17 4 -15 15 9 14 29 14 29 8 -19 -4 -35 -3 -47 6 -42 6 4 11 26 11
49 0 33 3 39 11 27 9 -12 10 -10 5 9 -3 14 3 40 15 62 23 46 28 48 22 12 -4
-27 -3 -26 11 5 8 18 22 35 31 38 22 9 8 24 -21 24 -15 0 -23 -4 -19 -10z"/>
<path d="M1220 1555 c-6 -8 -14 -34 -16 -57 -2 -24 -1 -36 2 -28 4 8 18 29 31
47 31 41 15 77 -17 38z"/>
<path d="M2675 1535 c-19 -20 -35 -41 -35 -48 1 -7 12 2 26 18 13 17 29 29 35
27 6 -1 8 2 5 7 -7 11 14 20 32 13 10 -3 3 -15 -20 -41 -19 -20 -40 -55 -46
-77 -18 -61 -14 -66 8 -10 11 27 34 64 51 82 34 35 39 35 87 -4 22 -17 22 -20
8 -52 -8 -19 -17 -57 -20 -85 -7 -56 0 -44 31 52 l20 62 -31 30 c-25 23 -94
61 -112 61 -2 0 -19 -16 -39 -35z"/>
<path d="M1765 1520 c3 -5 0 -18 -7 -29 -19 -30 4 -68 55 -91 51 -24 87 -25
113 -5 18 14 17 15 -16 10 -39 -7 -131 23 -138 45 -3 9 0 9 18 0 14 -8 25 -8
29 -2 3 5 16 12 28 16 16 5 22 2 25 -11 2 -12 13 -18 41 -18 47 -2 47 8 1 30
-24 11 -48 15 -72 11 -35 -6 -36 -5 -18 9 25 19 49 19 87 -1 36 -18 47 -13 24
10 -20 20 -81 20 -115 1 -29 -17 -44 -19 -36 -6 8 12 -4 41 -16 41 -5 0 -7 -4
-3 -10z"/>
<path d="M1252 1474 c-29 -20 -28 -34 3 -34 20 0 25 5 25 25 0 30 1 29 -28 9z"/>
<path d="M1460 1475 c0 -3 15 -14 33 -25 34 -21 111 -27 137 -10 11 7 -1 10
-40 10 -30 0 -68 7 -84 15 -29 15 -46 19 -46 10z"/>
<path d="M2871 1480 c-1 -3 -4 -22 -6 -43 -2 -21 -7 -47 -10 -58 -8 -25 -1
-24 43 8 20 15 39 28 40 29 2 2 -1 11 -7 21 -6 10 -11 12 -11 5 0 -17 -38 7
-44 28 -2 8 -4 13 -5 10z"/>
<path d="M1193 1403 c0 -16 2 -21 7 -14 5 9 13 5 28 -14 12 -15 26 -25 31 -23
5 1 -7 20 -27 40 l-37 37 -2 -26z"/>
<path d="M2935 1372 c-16 -11 -37 -27 -45 -38 -14 -18 -14 -18 3 -5 19 15 21
9 8 -37 -8 -25 -7 -32 5 -32 8 0 14 10 14 24 0 41 17 74 47 90 15 8 21 15 13
16 -8 0 -28 -8 -45 -18z"/>
<path d="M1565 1327 c-38 -24 -78 -46 -87 -50 -15 -5 -16 -10 -7 -30 l11 -23
45 43 c26 24 52 43 58 43 15 0 28 -44 15 -48 -6 -2 -10 -9 -10 -15 0 -8 4 -7
12 1 17 17 21 16 54 -13 40 -35 98 -32 125 6 19 27 19 28 -1 34 -15 5 -26 0
-39 -16 -16 -20 -21 -21 -35 -10 -8 7 -14 18 -13 24 1 7 -16 14 -38 17 -35 4
-40 8 -40 30 0 21 5 25 28 25 15 -1 26 4 24 10 -7 21 -34 14 -102 -28z"/>
<path d="M2970 1358 c-15 -5 -20 -12 -14 -16 13 -8 2 -46 -15 -57 -6 -3 -11
-10 -11 -14 0 -5 16 6 36 24 43 40 46 79 4 63z"/>
<path d="M1285 1333 c0 -26 -3 -28 -35 -26 -33 1 -34 0 -16 -13 26 -18 32 -18
55 5 25 25 27 19 36 -97 7 -83 8 -84 51 -124 24 -22 44 -47 44 -56 0 -8 3 -13
6 -9 3 3 28 -8 55 -25 28 -17 52 -28 55 -25 3 3 -3 10 -15 16 -33 18 -135 110
-153 139 -10 16 -19 59 -23 102 -6 71 -27 129 -50 137 -6 2 -11 -9 -10 -24z"/>
<path d="M1780 1336 c0 -7 7 -19 15 -26 8 -7 15 -20 15 -29 0 -9 9 -34 20 -56
11 -22 20 -45 20 -53 0 -7 5 -10 11 -6 17 10 3 60 -37 125 -37 61 -44 69 -44
45z"/>
<path d="M2786 1285 c-5 -19 -13 -25 -34 -26 -37 -1 -63 -6 -70 -15 -4 -4 11
-4 33 -1 22 4 65 9 95 13 50 6 55 8 55 31 0 23 -1 23 -15 5 -14 -17 -60 -37
-60 -25 0 2 5 13 10 24 6 11 7 19 1 19 -5 0 -12 -11 -15 -25z"/>
<path d="M2971 1280 l-23 -20 26 0 c19 0 26 5 26 20 0 24 1 24 -29 0z"/>
<path d="M1529 1221 c13 -12 33 -21 46 -21 12 0 40 -6 61 -14 22 -7 62 -17 89
-21 47 -8 48 -9 20 -16 -26 -6 -27 -7 -5 -7 14 0 39 3 55 7 l30 7 -23 13 c-13
7 -45 14 -73 16 -27 2 -55 7 -62 12 -7 6 -39 16 -72 23 -33 7 -67 15 -75 17
-8 3 -4 -5 9 -16z"/>
<path d="M2578 1229 c-10 -5 -18 -7 -18 -3 0 3 -7 1 -15 -6 -12 -10 -19 -10
-27 -2 -16 16 -28 15 -28 -2 0 -8 -15 -17 -36 -21 -20 -3 -55 -15 -78 -25 -58
-25 -108 -40 -142 -41 -28 -2 -27 -2 6 -8 19 -4 40 -4 45 0 13 9 215 71 315
98 67 17 71 19 35 20 -22 0 -48 -4 -57 -10z"/>
<path d="M2786 1163 c-4 -38 -10 -76 -12 -86 -9 -31 -24 -7 -23 36 1 40 2 41
10 12 5 -20 6 -9 2 30 -3 33 -7 62 -8 63 -2 2 -7 -33 -11 -78 -6 -69 -10 -83
-25 -87 -17 -5 -28 -23 -14 -23 18 0 220 83 254 104 37 24 42 31 39 59 l-3 32
-92 3 c-91 3 -93 2 -92 -20 0 -22 1 -22 9 -3 8 18 9 18 9 2 1 -11 6 -15 12
-11 6 3 15 0 20 -7 6 -10 9 -7 10 11 0 20 3 17 14 -15 l14 -40 -5 40 c-4 35
-3 37 7 18 14 -26 3 -105 -12 -82 -6 10 -9 10 -9 2 0 -21 -20 -15 -31 10 -8
19 -9 18 -4 -8 5 -28 4 -29 -9 -12 -14 18 -15 18 -18 -3 -2 -11 -7 -19 -13
-18 -6 2 -9 31 -7 71 2 37 1 67 -1 67 -3 0 -8 -30 -11 -67z m160 38 c36 7 49
-25 14 -36 -11 -3 -20 -12 -20 -18 0 -7 -4 -6 -10 3 -5 8 -10 29 -10 45 0 20
3 26 9 17 4 -7 12 -12 17 -11z"/>
<path d="M2670 1191 c0 -12 6 -21 16 -21 9 0 14 7 12 17 -5 25 -28 28 -28 4z"/>
<path d="M476 1192 c-3 -5 6 -44 19 -88 43 -147 103 -378 115 -444 17 -102 20
-107 34 -79 9 16 10 28 3 37 -6 7 -11 32 -11 56 -1 24 -5 42 -10 39 -5 -4 -6
7 -2 23 15 63 15 68 2 39 l-14 -30 -6 40 c-11 68 -27 137 -52 217 -29 97 -35
128 -23 128 5 0 9 7 9 15 0 8 5 15 11 15 6 0 8 -9 3 -22 -6 -20 -5 -21 10 -9
13 11 16 11 16 0 0 -10 2 -11 8 -2 9 14 44 12 54 -2 5 -6 8 -3 8 7 0 13 -16
22 -57 33 -32 9 -68 20 -81 26 -28 11 -30 11 -36 1z"/>
<path d="M1450 1174 c0 -9 -5 -13 -12 -9 -7 4 -4 -1 7 -9 10 -9 25 -29 31 -44
18 -40 18 0 0 43 -16 37 -26 45 -26 19z"/>
<path d="M2480 1149 c0 -5 -4 -8 -9 -5 -11 7 -24 -24 -15 -33 4 -3 9 0 11 7 3
6 9 10 14 6 5 -3 9 4 9 15 0 12 -2 21 -5 21 -3 0 -5 -5 -5 -11z"/>
<path d="M2677 1096 c-7 -64 -5 -87 8 -74 3 3 5 37 3 74 l-3 69 -8 -69z"/>
<path d="M2433 1135 c-6 -7 -35 -16 -65 -20 l-53 -8 33 -9 c23 -6 32 -14 28
-24 -3 -7 -2 -14 2 -14 4 0 37 -9 75 -19 l67 -20 -1 32 c-1 26 -3 28 -6 8 -4
-19 -7 -21 -14 -10 -7 11 -9 11 -9 1 0 -25 -20 -1 -21 26 l-1 27 -8 -30 c-7
-28 -8 -29 -10 -5 -1 23 -2 23 -10 5 -6 -13 -9 -15 -9 -5 -1 12 -3 12 -10 2
-6 -10 -10 -9 -14 7 -3 12 -1 19 4 15 5 -3 9 3 9 13 0 14 2 15 9 5 6 -10 10
-8 14 9 7 28 6 31 -10 14z"/>
<path d="M681 1118 c1 -13 5 -34 9 -48 7 -23 8 -23 9 -4 1 23 31 43 31 21 0
-8 3 -8 9 2 7 11 9 11 14 0 5 -12 7 -12 15 -1 6 10 13 -11 22 -67 8 -44 16
-79 18 -76 8 8 -20 155 -32 164 -7 6 -20 9 -31 7 -11 -2 -26 3 -33 11 -20 19
-32 16 -31 -9z"/>
<path d="M1610 1123 c19 -9 55 -17 80 -19 l45 -4 -40 20 c-22 11 -58 19 -80
19 l-40 -1 35 -15z"/>
<path d="M820 1102 c-23 -10 -23 -37 0 -57 20 -18 20 -17 20 8 0 14 3 32 6 41
6 17 -1 19 -26 8z"/>
<path d="M2989 1088 c0 -13 -3 -18 -6 -11 -3 8 -13 4 -30 -13 -29 -29 -25 -41
9 -23 12 7 26 12 31 11 4 -1 7 12 7 28 0 35 -10 41 -11 8z"/>
<path d="M892 1088 c-16 -16 -15 -35 3 -42 11 -4 15 2 15 24 0 34 -1 35 -18
18z"/>
<path d="M1996 1040 c-4 -33 -10 -60 -13 -60 -3 0 -16 12 -29 27 -17 20 -20
29 -11 35 8 5 13 0 15 -12 2 -11 8 -20 13 -20 6 0 7 5 4 10 -4 6 -1 17 5 25 6
8 9 19 5 26 -6 8 -10 7 -16 -2 -5 -8 -9 -9 -9 -3 0 6 -7 11 -15 11 -8 0 -12
-4 -9 -9 3 -4 -2 -8 -10 -8 -30 0 -16 -38 30 -80 41 -37 48 -41 56 -26 5 9 7
29 5 44 -4 25 -4 24 -6 -5 0 -18 -6 -33 -12 -33 -6 0 -8 7 -5 16 9 22 20 124
14 124 -3 0 -8 -27 -12 -60z"/>
<path d="M1200 1081 c-67 -14 -154 -71 -130 -86 7 -4 27 8 49 29 43 42 66 49
30 9 l-24 -28 28 25 c24 20 30 22 37 10 5 -8 7 -25 3 -37 -3 -13 -3 -23 1 -23
3 0 9 15 14 33 6 24 5 35 -7 45 -14 12 -14 13 2 8 10 -3 27 -6 38 -6 10 0 18
-3 18 -7 -3 -21 2 -34 11 -28 6 4 8 9 6 13 -2 4 7 8 20 8 l25 2 -26 -34 c-14
-19 -24 -34 -21 -34 3 0 -5 -10 -17 -23 -83 -87 -117 -127 -107 -127 6 0 41
32 78 70 36 39 70 70 74 70 4 0 8 -9 8 -21 0 -11 -4 -18 -9 -14 -5 3 -13 0
-17 -6 -4 -8 -3 -9 4 -5 7 4 12 2 12 -4 0 -6 5 -8 11 -4 6 3 4 -8 -5 -24 -9
-17 -16 -38 -16 -47 0 -8 -4 -15 -10 -15 -5 0 -10 -8 -10 -18 0 -10 -7 -27
-15 -39 -10 -14 -12 -24 -5 -28 5 -3 10 -11 10 -16 0 -6 -5 -7 -11 -3 -8 4 -8
1 -1 -13 6 -10 7 -25 3 -32 -6 -9 -13 -6 -29 13 -24 31 -37 33 -39 7 -1 -11 6
-21 17 -24 28 -7 14 -43 -21 -58 -16 -6 -28 -14 -25 -16 6 -7 60 23 75 41 8 9
18 16 24 16 5 0 2 -9 -7 -19 -13 -15 -14 -20 -4 -24 10 -3 8 -9 -7 -21 -20
-17 -20 -17 1 -7 18 9 24 27 38 108 9 54 27 121 41 148 22 45 23 58 18 133 -6
82 -6 83 -35 89 -15 3 -31 10 -34 14 -6 10 -13 10 -64 0z"/>
<path d="M2549 1053 l-2 -38 -7 35 -8 35 1 -34 c3 -51 27 -53 27 -2 0 51 -10
54 -11 4z"/>
<path d="M2032 1072 c-8 -6 -9 -24 -5 -62 l7 -55 8 59 c8 65 8 68 -10 58z"/>
<path d="M2137 1065 c-4 -11 -2 -58 3 -105 5 -47 10 -90 10 -96 0 -7 9 -14 21
-17 18 -5 20 -2 15 16 -3 12 -6 36 -7 52 -2 23 -4 19 -8 -15 -6 -41 -8 -36
-14 45 -13 154 -11 143 -20 120z"/>
<path d="M953 1003 c6 -56 4 -73 -8 -83 -8 -7 -15 -17 -15 -23 0 -5 9 2 20 16
16 20 20 39 19 87 -1 33 -7 63 -12 67 -7 4 -8 -18 -4 -64z"/>
<path d="M2187 1062 c-7 -11 8 -171 17 -180 6 -6 -3 179 -9 186 -2 2 -5 -1 -8
-6z"/>
<path d="M2612 1038 c-2 -28 2 -38 13 -38 11 0 15 10 14 38 l-2 37 -7 -35 -7
-35 -5 35 -5 35 -1 -37z"/>
<path d="M986 1045 c-9 -26 -7 -87 3 -80 5 3 7 21 4 40 -4 24 -2 35 6 35 7 0
9 -5 6 -10 -9 -14 4 -52 15 -45 5 3 7 12 3 20 -3 10 -1 13 9 10 8 -3 20 0 27
8 9 12 7 16 -9 20 -11 3 -20 0 -20 -5 0 -6 -8 -3 -19 6 -17 15 -19 15 -25 1z"/>
<path d="M853 1036 c4 -10 10 -56 14 -102 3 -49 9 -80 14 -72 4 7 5 40 2 74
-4 40 -2 64 6 68 8 5 11 -11 11 -55 0 -43 3 -60 10 -53 7 7 8 32 4 66 -6 48
-11 58 -37 73 -28 17 -30 17 -24 1z"/>
<path d="M2310 1010 c0 -16 5 -30 10 -30 6 0 10 14 10 30 0 17 -4 30 -10 30
-5 0 -10 -13 -10 -30z"/>
<path d="M2343 908 c2 -70 -1 -124 -5 -122 -4 3 -9 24 -10 47 l-1 42 -7 -45
c-7 -44 -7 -43 -8 19 -1 36 -6 61 -10 55 -5 -5 -6 -35 -4 -66 3 -52 6 -57 33
-67 l29 -10 -1 97 c0 53 -4 115 -9 137 -7 29 -8 6 -7 -87z"/>
<path d="M2372 1018 c-5 -7 -6 -22 -2 -33 4 -11 5 -68 2 -126 -3 -73 -1 -108
7 -113 8 -5 11 33 11 138 0 80 -2 146 -4 146 -2 0 -8 -6 -14 -12z"/>
<path d="M2806 993 c-4 -18 -5 -43 -1 -55 5 -18 4 -20 -4 -8 -6 8 -11 11 -11
5 0 -5 -5 -3 -10 5 -5 8 -9 24 -9 35 1 16 2 16 9 -5 5 -15 8 -18 9 -8 1 9 4
25 7 35 3 10 2 14 -3 8 -4 -5 -24 -11 -43 -12 -117 -8 -116 -9 71 -89 95 -41
174 -74 174 -74 0 0 1 44 2 98 2 73 0 91 -8 72 -6 -13 -7 -35 -4 -48 3 -14 2
-21 -4 -18 -5 4 -12 -7 -16 -23 -6 -30 -35 -52 -35 -27 0 9 -7 12 -20 9 -16
-4 -20 0 -21 18 0 22 -1 23 -9 4 -8 -19 -8 -19 -18 5 -9 22 -11 22 -12 5 -1
-20 -1 -20 -10 0 -6 13 -9 15 -9 5 -2 -24 -21 10 -20 35 0 20 0 20 9 0 9 -20
9 -20 9 0 0 11 -4 29 -8 40 -7 18 -9 16 -15 -12z"/>
<path d="M2433 868 c0 -94 4 -148 10 -148 6 0 2 -9 -9 -21 -17 -18 -19 -41
-22 -178 -2 -86 -1 -153 3 -149 3 3 6 59 6 123 -1 106 10 182 29 210 7 9 -5
243 -14 290 -2 11 -4 -46 -3 -127z"/>
<path d="M1086 959 c-15 -22 -26 -42 -24 -43 23 -17 54 -36 59 -36 4 0 9 8 12
18 3 9 15 32 27 50 12 17 19 32 16 32 -3 0 -16 -15 -28 -32 -13 -18 -31 -34
-40 -36 -22 -4 -22 1 -2 44 24 50 12 51 -20 3z"/>
<path d="M2073 975 c1 -17 -3 -36 -7 -44 -6 -10 -5 -12 2 -7 7 4 12 1 12 -7 0
-14 27 -43 34 -36 2 2 0 27 -4 54 l-7 50 -3 -45 -2 -45 -14 55 c-7 31 -12 42
-11 25z"/>
<path d="M2465 853 c5 -131 9 -165 18 -152 7 11 -6 299 -14 299 -6 0 -7 -60
-4 -147z"/>
<path d="M2495 928 c1 -35 3 -102 3 -149 l2 -86 47 -21 c26 -11 48 -20 49 -19
1 1 -2 72 -6 157 l-7 155 -1 -149 c-1 -82 -4 -147 -7 -144 -3 2 -7 71 -10 153
-2 81 -7 150 -11 154 -3 3 -4 -60 -2 -141 2 -81 0 -144 -4 -140 -4 4 -8 69
-10 145 -1 77 -6 137 -12 137 -5 0 -7 -58 -3 -147 3 -87 2 -140 -3 -128 -5 11
-9 80 -9 153 -1 72 -5 132 -10 132 -5 0 -8 -28 -6 -62z"/>
<path d="M1755 957 c-11 -7 -22 -15 -25 -18 -3 -4 -16 -9 -29 -10 -20 -3 -22
-6 -10 -16 19 -15 55 1 77 35 16 25 15 26 -13 9z"/>
<path d="M2607 868 c3 -46 7 -85 8 -86 2 -2 5 35 7 82 2 60 0 86 -8 86 -8 0
-10 -24 -7 -82z"/>
<path d="M984 915 c-9 -14 -17 -48 -17 -81 -2 -39 -7 -59 -19 -68 -15 -11 -15
-13 2 -23 16 -11 18 -7 26 40 4 29 8 60 9 70 1 10 12 31 23 47 20 26 20 40 1
40 -5 0 -16 -11 -25 -25z"/>
<path d="M2661 888 c1 -37 2 -39 9 -18 12 36 12 60 0 60 -5 0 -10 -19 -9 -42z"/>
<path d="M2693 850 c0 -41 2 -58 4 -37 2 20 2 54 0 75 -2 20 -4 3 -4 -38z"/>
<path d="M1030 900 c0 -5 7 -10 15 -10 23 0 35 -59 19 -97 -7 -18 -11 -33 -9
-33 6 0 57 101 53 104 -68 48 -78 53 -78 36z"/>
<path d="M1742 898 c-15 -19 2 -48 19 -31 7 7 8 17 2 28 -8 13 -11 14 -21 3z"/>
<path d="M2717 863 c8 -51 10 -51 15 -4 2 28 0 41 -9 41 -8 0 -10 -12 -6 -37z"/>
<path d="M2249 854 c-1 -38 -2 -38 -9 -9 l-8 30 -1 -27 c-1 -17 6 -31 18 -37
18 -10 19 -8 14 32 -7 55 -13 60 -14 11z"/>
<path d="M836 840 c-11 -22 -16 -43 -13 -47 4 -3 7 -1 7 5 0 7 6 12 13 12 7 0
13 15 14 35 2 19 2 35 0 35 -1 0 -11 -18 -21 -40z"/>
<path d="M2770 843 c0 -28 3 -34 10 -23 13 20 13 60 0 60 -5 0 -10 -17 -10
-37z"/>
<path d="M1940 840 c0 -22 4 -28 15 -24 11 4 12 11 5 24 -5 9 -6 20 -3 24 3 3
1 6 -5 6 -7 0 -12 -13 -12 -30z"/>
<path d="M2809 863 c-1 -5 -2 -51 -3 -103 -4 -170 -5 -192 -17 -185 -7 5 -8
41 -3 110 3 56 3 105 -2 108 -5 3 -10 -18 -11 -46 0 -29 -2 -79 -4 -112 l-3
-60 -6 80 -6 80 -2 -62 c-3 -107 -22 -84 -24 29 l-2 103 -6 -100 c-6 -106 -17
-101 -23 10 -3 48 -4 43 -5 -25 l-2 -85 57 -25 c31 -14 59 -26 62 -27 3 -2 8
69 10 157 2 88 0 160 -3 160 -3 0 -6 -3 -7 -7z"/>
<path d="M902 821 c-26 -36 -41 -88 -22 -76 10 6 12 4 7 -8 -3 -9 1 -33 9 -53
9 -22 12 -39 6 -43 -5 -3 -12 -15 -14 -26 -4 -17 -7 -16 -17 10 -15 36 -22
143 -9 151 13 8 10 26 -4 22 -7 -3 -15 -16 -19 -31 -4 -15 -4 -25 0 -23 4 3 7
-19 7 -47 0 -38 7 -65 26 -100 31 -55 20 -63 -16 -11 -13 20 -26 30 -28 23 -4
-12 61 -79 77 -79 4 0 4 11 1 24 -3 14 -2 28 4 31 5 3 10 15 10 26 0 11 4 18
9 14 5 -3 13 0 17 6 4 7 3 9 -3 6 -16 -10 -35 46 -28 79 5 23 4 26 -5 14 -10
-12 -11 -11 -7 7 3 12 1 23 -5 25 -5 2 -6 12 -2 22 5 13 9 14 14 6 5 -8 10 -1
15 19 9 43 3 47 -23 12z"/>
<path d="M1097 796 c-15 -29 -41 -67 -58 -84 l-29 -30 32 -20 c40 -26 57 -18
28 13 l-22 24 22 23 c23 24 63 105 58 119 -2 5 -16 -15 -31 -45z"/>
<path d="M1190 835 c-18 -21 14 -53 35 -35 23 19 18 28 -12 22 -25 -5 -27 -4
-14 11 7 10 11 17 8 17 -2 0 -10 -7 -17 -15z"/>
<path d="M1863 839 c9 -5 22 -7 29 -3 6 4 9 3 6 -2 -3 -5 0 -15 8 -22 12 -11
14 -9 14 13 0 22 -4 25 -37 25 -31 -1 -35 -3 -20 -11z"/>
<path d="M2090 844 c0 -10 49 -54 61 -54 5 0 15 -11 21 -25 6 -14 15 -25 19
-25 4 0 12 -19 17 -42 l10 -43 1 57 1 56 -52 34 c-71 47 -78 50 -78 42z"/>
<path d="M1759 764 c-41 -41 -75 -70 -77 -65 -4 12 -41 15 -43 4 -8 -45 -6
-53 9 -41 13 11 14 9 7 -12 -7 -24 -6 -24 11 -8 17 17 17 18 -1 33 -19 15 -18
16 12 10 26 -5 32 -3 38 15 4 12 11 17 18 14 7 -4 9 -3 4 1 -4 5 3 19 15 32
21 23 45 32 33 13 -9 -15 7 -12 29 5 11 8 17 18 13 21 -3 3 -2 17 3 30 5 13 8
24 6 24 -2 0 -37 -34 -77 -76z"/>
<path d="M2642 741 c-2 -112 -9 -125 -22 -39 l-8 53 -1 -56 c-1 -54 0 -56 34
-72 l35 -17 -1 113 c-1 80 -3 102 -9 78 -5 -19 -6 -40 -3 -48 3 -7 1 -39 -3
-71 -9 -56 -9 -55 -15 53 l-5 110 -2 -104z"/>
<path d="M2860 763 c0 -42 2 -74 4 -72 9 10 14 149 5 149 -5 0 -9 -34 -9 -77z"/>
<path d="M2890 768 c0 -74 5 -73 14 5 5 38 4 57 -3 57 -7 0 -11 -24 -11 -62z"/>
<path d="M2405 784 c-4 -22 -2 -41 4 -47 8 -8 11 3 11 36 0 56 -5 60 -15 11z"/>
<path d="M2916 642 c-3 -97 -8 -201 -9 -229 -2 -29 0 -53 5 -53 4 0 8 15 8 33
1 125 10 366 15 388 4 15 2 30 -3 33 -6 4 -12 -63 -16 -172z"/>
<path d="M1380 794 c0 -13 7 -15 31 -10 17 3 36 6 41 6 5 0 6 5 3 10 -3 6 -22
10 -41 10 -25 0 -34 -4 -34 -16z"/>
<path d="M1655 780 c-22 -23 -26 -33 -17 -42 9 -9 12 -9 12 0 0 6 10 20 22 32
12 11 18 20 12 20 -5 0 -2 5 6 10 8 5 10 10 4 10 -5 0 -23 -14 -39 -30z"/>
<path d="M1714 781 c-10 -17 -24 -31 -31 -31 -18 0 -27 -21 -12 -30 8 -6 17
-1 24 13 7 12 17 21 23 20 7 -2 11 2 10 9 -2 7 2 12 9 13 20 0 24 12 9 24 -12
10 -18 6 -32 -18z"/>
<path d="M2946 708 c-5 -82 -3 -110 8 -97 7 8 13 189 6 189 -4 0 -10 -41 -14
-92z"/>
<path d="M1893 771 c-20 -4 -42 -19 -61 -43 -16 -21 -32 -35 -35 -32 -3 3 -4
-2 -2 -13 2 -10 4 -22 4 -26 1 -5 6 -5 11 -2 6 4 8 11 5 16 -4 5 2 12 12 15
10 3 34 14 54 25 20 10 51 19 68 19 17 0 31 5 31 10 0 6 5 10 11 10 6 0 9 -8
5 -17 -5 -16 -4 -17 6 -2 11 16 14 15 40 -4 23 -17 31 -19 54 -9 14 7 30 10
35 7 5 -4 9 -2 9 4 0 9 -60 31 -87 31 -7 0 -13 4 -13 9 0 10 -98 11 -147 2z"/>
<path d="M1573 746 c-11 -11 -28 -27 -37 -34 -9 -7 -14 -18 -10 -24 6 -10 84
58 84 74 0 13 -14 7 -37 -16z"/>
<path d="M2250 759 c0 -5 -4 -8 -8 -5 -11 7 -6 -144 5 -155 4 -4 9 32 9 82 1
49 0 89 -2 89 -2 0 -4 -5 -4 -11z"/>
<path d="M1013 736 c-24 -9 -30 -15 -23 -26 8 -13 14 -10 37 13 15 15 25 26
23 26 -3 -1 -19 -7 -37 -13z"/>
<path d="M2283 742 c-9 -5 -11 -48 -10 -150 1 -78 3 -142 5 -142 14 0 20 66
14 146 -4 52 -4 98 0 100 11 7 16 -27 27 -199 6 -90 15 -165 22 -173 7 -8 12
-68 13 -163 1 -83 5 -153 8 -156 11 -11 17 208 6 228 -6 12 -8 45 -5 76 3 32
2 48 -3 36 -6 -16 -9 -17 -13 -5 -8 22 -22 235 -21 313 1 48 -2 67 -12 67 -7
0 -14 7 -16 15 -2 8 -8 11 -15 7z"/>
<path d="M1585 710 l-27 -29 36 17 c36 16 44 26 28 36 -5 3 -21 -8 -37 -24z"/>
<path d="M930 719 c0 -6 9 -13 21 -16 14 -4 19 -12 16 -24 -3 -12 0 -16 9 -12
22 8 16 -8 -13 -40 -23 -23 -24 -27 -8 -21 11 5 28 17 37 29 17 20 17 20 32 0
9 -11 14 -29 11 -40 -4 -17 -1 -16 15 5 l18 24 -36 25 c-20 14 -47 37 -60 53
-25 29 -42 36 -42 17z"/>
<path d="M1772 705 c-11 -14 -23 -25 -27 -25 -10 0 -38 -30 -33 -35 2 -3 20 6
38 20 19 14 30 25 25 25 -4 0 0 9 10 20 10 11 15 20 12 20 -3 0 -14 -11 -25
-25z"/>
<path d="M2140 698 c-32 -48 -32 -47 -2 -39 16 5 36 5 45 -1 21 -12 21 -3 0
33 -21 35 -24 35 -43 7z"/>
<path d="M1414 696 c-17 -8 -48 -34 -69 -59 -27 -32 -48 -47 -73 -52 -21 -4
-31 -10 -26 -15 17 -17 77 8 124 50 25 22 56 43 69 47 25 6 68 -14 110 -53 22
-21 23 -22 6 -48 -23 -34 -13 -45 11 -13 11 13 23 24 28 24 9 1 26 23 26 35 0
3 -17 12 -37 19 -21 6 -57 27 -80 45 -47 38 -46 38 -89 20z"/>
<path d="M2344 664 c3 -26 6 -92 6 -148 0 -60 4 -96 9 -87 5 7 7 27 5 45 -1
17 -3 77 -3 134 -1 69 -5 102 -12 102 -8 0 -10 -15 -5 -46z"/>
<path d="M2073 689 c-29 -8 -31 -12 -21 -28 9 -15 9 -23 -1 -35 -16 -19 -38
-6 -50 28 -4 11 -11 15 -14 9 -3 -5 9 -25 28 -43 l33 -32 26 40 c14 22 30 43
36 47 12 7 14 25 3 24 -5 0 -23 -5 -40 -10z"/>
<path d="M2377 543 c3 -87 6 -162 8 -168 2 -5 4 65 4 158 1 92 -3 167 -8 167
-5 0 -7 -70 -4 -157z"/>
<path d="M2886 627 c-4 -43 -6 -81 -3 -84 8 -8 19 78 15 122 -2 31 -5 22 -12
-38z"/>
<path d="M800 682 c0 -8 -9 -11 -25 -8 -18 3 -28 -1 -36 -16 -6 -11 -8 -22 -5
-25 3 -3 8 2 12 11 5 13 9 14 20 5 8 -6 21 -8 30 -5 13 5 15 2 11 -14 -3 -11
-2 -20 3 -20 14 0 16 35 3 60 -7 14 -13 19 -13 12z"/>
<path d="M1123 659 c-49 -34 -50 -38 -25 -69 17 -21 19 -21 32 -4 8 10 10 15
4 11 -8 -4 -11 2 -10 17 0 13 3 23 6 21 3 -2 13 10 22 26 10 16 16 29 15 29
-1 -1 -21 -14 -44 -31z"/>
<path d="M2863 600 c0 -47 2 -66 4 -42 2 23 2 61 0 85 -2 23 -4 4 -4 -43z"/>
<path d="M1753 649 c-18 -12 -30 -25 -27 -30 3 -5 0 -9 -5 -9 -6 0 -11 5 -11
12 0 6 -6 4 -13 -7 -9 -11 -19 -15 -28 -10 -11 6 -12 5 -1 -6 19 -20 15 -29
-15 -29 l-28 -1 28 -15 c23 -13 26 -18 16 -36 -9 -16 -8 -19 3 -16 16 6 23 38
10 47 -6 4 16 28 49 54 32 26 59 52 59 57 0 13 0 13 -37 -11z"/>
<path d="M2446 644 c-3 -9 -5 -82 -5 -162 1 -125 3 -138 10 -87 5 33 6 97 3
143 -6 73 -5 82 10 76 14 -5 16 -28 18 -158 l2 -151 6 165 c6 164 3 201 -11
164 -7 -17 -8 -17 -8 4 -1 25 -16 29 -25 6z"/>
<path d="M1850 635 c-7 -8 -17 -15 -24 -15 -27 0 -115 -54 -120 -74 -11 -40
-8 -48 14 -36 11 6 17 16 14 25 -4 9 7 22 28 35 60 37 106 39 77 3 -13 -15
-12 -15 12 0 22 14 49 55 49 72 0 12 -39 4 -50 -10z"/>
<path d="M1910 624 c-6 -15 -13 -32 -17 -38 -4 -6 3 -3 14 7 11 9 23 14 26 10
4 -3 15 1 25 10 10 10 22 15 25 12 4 -3 4 -1 0 4 -5 5 -20 11 -36 15 -23 6
-29 3 -37 -20z"/>
<path d="M2080 611 l-20 -30 49 -49 49 -49 10 36 c10 31 9 34 -3 18 -13 -18
-14 -18 -34 2 -12 12 -25 21 -30 21 -10 0 -8 34 4 63 11 26 -1 20 -25 -12z"/>
<path d="M2513 472 c0 -94 3 -169 5 -167 9 8 10 313 1 326 -4 7 -7 -65 -6
-159z"/>
<path d="M2832 595 c-2 -44 -6 -52 -32 -67 -31 -17 -40 -38 -17 -38 40 -1 42
-12 43 -223 0 -223 4 -237 58 -237 14 0 26 -4 26 -8 0 -4 19 -8 42 -7 31 0 44
4 46 16 2 12 -4 15 -27 11 -19 -3 -42 3 -63 16 -18 11 -39 17 -45 15 -10 -4
-13 44 -14 214 -1 210 -14 427 -17 308z"/>
<path d="M746 613 c-4 -10 -4 -14 0 -11 8 9 31 -13 35 -36 4 -15 5 -15 16 3
11 17 9 23 -16 40 -27 19 -29 20 -35 4z"/>
<path d="M2539 514 c0 -60 -1 -130 -2 -156 -1 -26 1 -44 5 -40 9 9 14 290 5
298 -4 4 -7 -42 -8 -102z"/>
<path d="M665 587 c-8 -13 -18 -39 -21 -58 -7 -34 -7 -34 13 -16 13 11 19 26
16 38 -3 11 2 28 12 39 10 11 13 20 7 20 -6 0 -18 -10 -27 -23z"/>
<path d="M2568 451 c-2 -89 0 -161 5 -161 4 0 7 63 7 141 0 102 3 138 11 133
8 -5 10 -34 6 -93 -3 -47 -1 -95 3 -106 6 -13 9 22 10 95 1 64 5 104 9 90 4
-14 6 -71 4 -127 -1 -58 1 -103 7 -103 5 0 11 15 13 33 2 20 5 10 6 -28 2 -47
5 -54 11 -35 4 14 8 44 9 68 1 34 -2 42 -17 42 -16 0 -18 8 -14 90 4 81 3 90
-13 90 -10 0 -26 7 -36 16 -17 15 -18 9 -21 -145z"/>
<path d="M1060 598 c0 -3 -7 -22 -15 -41 -9 -23 -11 -38 -5 -42 6 -4 13 7 16
24 8 40 19 40 20 0 1 -16 6 -35 12 -41 7 -7 10 2 7 32 -1 23 -10 49 -19 58 -9
9 -16 14 -16 10z"/>
<path d="M2201 564 c-7 -20 -10 -38 -7 -41 3 -4 6 1 6 9 0 9 7 18 15 22 16 6
20 31 7 40 -5 3 -14 -11 -21 -30z"/>
<path d="M705 542 c-22 -26 -31 -40 -20 -32 11 8 25 21 31 29 8 10 11 4 12
-28 2 -40 1 -41 -31 -43 -17 0 -38 -1 -44 -1 -15 1 -16 -13 -3 -42 7 -15 9
-16 9 -4 1 25 48 30 76 7 25 -20 45 -17 45 6 0 23 -25 37 -40 23 -10 -10 -12
-8 -6 8 4 11 8 44 9 73 1 28 2 52 2 52 0 -1 -18 -22 -40 -48z"/>
<path d="M1935 563 c-27 -30 -31 -43 -14 -43 6 0 13 9 16 20 3 11 10 20 15 20
5 0 16 7 24 15 14 13 14 15 0 15 -8 0 -27 -12 -41 -27z"/>
<path d="M2022 585 c8 -9 -22 -65 -35 -65 -4 0 -5 -5 -2 -10 4 -6 -4 -23 -17
-38 -29 -34 -69 -30 -78 8 -4 17 -8 21 -14 12 -11 -18 -34 -15 -31 6 3 33 16
51 33 45 15 -4 15 -3 2 6 -22 16 -25 14 -53 -28 l-26 -39 47 -17 c26 -10 56
-24 67 -32 11 -7 23 -13 27 -13 10 0 98 134 98 149 0 5 -6 13 -12 17 -7 4 -10
4 -6 -1z"/>
<path d="M814 568 c-4 -7 -14 -24 -22 -38 l-14 -25 21 25 21 25 20 -24 c12
-14 20 -18 20 -10 0 12 2 12 9 0 5 -7 5 -29 0 -50 -12 -52 -10 -60 7 -28 32
59 23 13 -10 -51 -10 -20 -11 -33 -4 -46 6 -10 12 -55 14 -100 4 -120 3 -114
15 -93 6 9 7 26 4 37 -4 12 -2 20 5 20 8 0 8 6 -1 21 -12 23 -9 203 4 215 4 4
13 2 20 -5 9 -11 9 -14 0 -18 -7 -3 -13 -9 -13 -15 0 -6 9 -3 19 7 20 17 20
18 -9 41 -19 17 -26 30 -23 44 3 11 1 20 -5 20 -6 0 -24 14 -41 30 -21 22 -32
27 -37 18z"/>
<path d="M1170 558 c-47 -11 -61 -22 -53 -44 2 -7 -5 -19 -16 -26 -12 -7 -21
-19 -21 -27 0 -11 4 -9 15 5 14 18 14 18 15 -9 0 -16 -4 -26 -9 -22 -15 8 -25
-15 -27 -62 -2 -45 6 -56 43 -66 25 -6 27 -4 37 36 5 23 3 27 -16 27 -17 0
-19 -3 -10 -12 19 -19 14 -30 -10 -26 -20 3 -23 8 -20 43 2 22 8 44 13 50 5 5
9 15 9 23 0 31 32 80 55 85 13 2 26 0 27 -4 2 -5 8 3 15 16 6 14 8 25 5 24 -4
-1 -27 -6 -52 -11z"/>
<path d="M2653 510 c4 -77 16 -89 19 -19 l1 54 7 -65 7 -65 1 53 c3 71 22 66
24 -5 l1 -58 7 45 c6 38 7 40 10 15 3 -28 3 -27 10 10 l7 40 3 -40 c2 -27 4
-33 7 -16 6 31 -5 73 -17 66 -6 -3 -10 -2 -10 3 0 5 -8 12 -17 16 -10 3 -28
10 -41 16 -22 9 -23 9 -19 -50z"/>
<path d="M2050 552 c0 -6 -20 -40 -44 -77 l-45 -66 45 -44 c24 -25 44 -50 44
-57 0 -7 -22 10 -50 37 -27 27 -51 47 -53 44 -1 -2 -15 -21 -30 -41 l-28 -38
25 0 c19 0 23 4 19 20 -6 24 21 37 42 20 22 -18 18 -40 -7 -41 -13 0 0 -6 27
-13 50 -12 50 -11 73 18 23 32 30 48 10 28 -14 -14 -48 2 -48 23 0 8 -6 15
-14 15 -7 0 -16 10 -19 22 -7 25 59 131 77 125 16 -5 47 -51 48 -73 1 -10 -2
-30 -6 -44 -5 -18 -1 -15 13 10 19 34 19 36 1 65 -21 34 -80 83 -80 67z"/>
<path d="M595 531 c-11 -11 -36 -28 -55 -39 -29 -15 -34 -24 -32 -47 3 -18 0
-25 -7 -20 -6 3 -9 10 -7 14 11 17 -54 -3 -75 -23 -13 -11 -32 -25 -43 -31
-11 -5 -22 -17 -24 -25 -4 -10 0 -9 13 4 18 18 19 18 32 0 7 -10 13 -24 13
-31 0 -8 10 -28 23 -46 l22 -32 23 21 23 22 -41 16 c-22 9 -40 22 -40 30 0 35
14 75 28 81 12 4 13 3 2 -10 -15 -18 -9 -28 13 -19 9 3 13 12 10 20 -3 8 -1
14 5 14 6 0 12 -6 15 -12 5 -16 37 8 37 27 0 7 21 30 48 51 l47 38 -48 -54
c-85 -98 -79 -86 -62 -126 l15 -36 37 31 c20 17 39 28 42 25 3 -3 -12 -21 -34
-40 -39 -32 -40 -34 -21 -51 17 -16 18 -16 13 -1 -8 24 32 75 45 56 7 -9 8 0
4 25 -2 20 -1 35 4 32 5 -3 12 0 16 6 4 7 3 9 -3 6 -7 -5 -9 13 -6 52 3 32 1
66 -4 75 -8 14 -11 14 -28 -3z m6 -120 c-11 -20 -26 -43 -34 -49 -13 -11 -15
-6 -19 29 -3 36 0 46 26 70 30 28 31 28 38 8 5 -13 1 -34 -11 -58z"/>
<path d="M1436 535 c-3 -9 -10 -14 -15 -11 -5 3 -8 -2 -7 -11 0 -9 -9 -22 -22
-29 -19 -9 -20 -13 -8 -17 11 -5 24 6 42 34 14 23 23 43 21 45 -3 3 -7 -2 -11
-11z"/>
<path d="M1611 528 c-5 -13 -12 -38 -16 -57 -5 -26 -4 -32 6 -29 8 3 14 18 14
35 0 16 6 37 13 46 9 10 10 17 2 22 -5 3 -14 -4 -19 -17z"/>
<path d="M1788 525 c-21 -18 -24 -25 -13 -29 9 -3 22 5 31 20 22 33 15 37 -18
9z"/>
<path d="M1580 511 c0 -7 -4 -10 -9 -6 -10 6 -16 -8 -26 -69 l-7 -39 24 15
c24 16 26 47 5 60 -8 5 -6 12 8 22 11 8 17 18 12 22 -4 4 -7 2 -7 -5z"/>
<path d="M1020 502 c0 -6 -11 -24 -25 -40 l-25 -30 25 -16 c31 -20 32 -20 46
5 8 15 8 19 0 15 -21 -13 -30 3 -20 36 5 17 6 34 4 37 -3 2 -5 -1 -5 -7z"/>
<path d="M2174 485 c-3 -14 -2 -38 4 -53 6 -15 12 -36 14 -47 3 -15 9 -9 26
25 19 37 19 41 4 21 l-20 -24 -12 23 c-7 12 -9 35 -6 51 7 36 -1 39 -10 4z"/>
<path d="M980 485 c-8 -10 -21 -13 -34 -9 -20 6 -20 5 -4 -11 18 -19 32 -14
48 16 13 23 7 25 -10 4z"/>
<path d="M1508 469 c-26 -29 -28 -30 -52 -14 -14 9 -30 13 -37 9 -8 -4 0 -13
22 -25 47 -25 51 -24 77 21 27 48 25 50 -10 9z"/>
<path d="M1730 481 c12 -9 11 -11 -8 -11 -13 0 -43 -9 -68 -20 -41 -19 -44
-23 -44 -58 1 -35 2 -36 15 -18 8 11 15 23 15 28 0 4 5 8 11 8 6 0 17 7 25 15
18 18 64 20 64 3 0 -6 -6 -19 -12 -28 -7 -9 0 -2 15 14 34 37 32 70 -3 74 -20
2 -22 1 -10 -7z"/>
<path d="M2781 470 c13 -7 14 -22 7 -91 -4 -45 -6 -85 -3 -89 2 -3 5 -50 6
-103 1 -54 5 -97 10 -97 5 0 9 83 8 189 -1 158 -3 190 -16 195 -22 9 -30 7
-12 -4z"/>
<path d="M1336 460 c32 -13 37 -26 19 -60 -8 -16 -14 -30 -11 -30 5 0 48 72
44 75 -12 10 -49 25 -60 24 -7 0 -3 -4 8 -9z"/>
<path d="M1778 443 c-6 -16 -28 -45 -47 -65 -19 -21 -30 -38 -24 -38 6 0 23
16 38 36 23 30 31 34 55 29 35 -8 48 10 20 25 -13 7 -19 18 -16 26 10 27 -14
14 -26 -13z"/>
<path d="M2280 432 c-17 -26 -30 -38 -40 -34 -13 5 -13 3 -2 -10 11 -13 10
-16 -5 -14 -13 1 -18 -7 -20 -24 -1 -22 -1 -22 4 -2 5 25 13 28 31 10 8 -8 12
-9 12 -1 0 6 12 25 26 42 14 17 24 40 22 52 -3 18 -7 15 -28 -19z"/>
<path d="M2966 415 c-4 -20 -10 -43 -13 -51 -3 -8 -1 -14 5 -14 5 0 13 21 17
46 8 55 0 70 -9 19z"/>
<path d="M1376 387 l-27 -50 38 32 c39 32 59 39 65 20 3 -8 7 -7 15 2 9 11 4
17 -26 30 l-37 16 -28 -50z"/>
<path d="M2125 380 c-16 -34 -35 -66 -42 -72 -22 -18 -15 -25 29 -31 32 -4 45
-2 55 11 16 22 17 37 1 25 -7 -6 -26 -13 -42 -17 -21 -5 -27 -4 -23 6 24 64
44 98 54 98 15 0 16 9 5 28 -6 8 -18 -8 -37 -48z"/>
<path d="M1494 403 c-15 -24 -15 -26 -1 -14 16 13 25 2 10 -13 -11 -11 -15
-56 -4 -56 5 0 12 17 15 38 4 20 9 45 12 55 8 26 -12 20 -32 -10z"/>
<path d="M934 398 c-15 -18 -16 -20 -2 -9 15 11 22 11 43 -3 14 -9 25 -24 25
-34 1 -15 2 -15 12 2 9 16 6 23 -18 43 -36 28 -36 28 -60 1z"/>
<path d="M1567 382 c-15 -19 -26 -37 -24 -38 10 -11 48 12 53 32 10 41 0 43
-29 6z"/>
<path d="M1916 409 c4 -8 -1 -9 -15 -4 -23 7 -28 -4 -10 -22 20 -20 -2 -34
-50 -32 -55 3 -87 -10 -55 -22 10 -4 35 -8 55 -8 31 -1 40 5 67 43 26 36 29
45 16 50 -9 4 -12 2 -8 -5z"/>
<path d="M2763 330 c0 -47 2 -66 4 -42 2 23 2 61 0 85 -2 23 -4 4 -4 -43z"/>
<path d="M460 380 c-13 -8 -13 -10 1 -10 9 0 22 -14 29 -30 7 -17 15 -29 17
-26 4 4 -23 76 -29 76 -2 0 -10 -5 -18 -10z"/>
<path d="M2683 335 c0 -33 2 -45 4 -27 2 18 2 45 0 60 -2 15 -4 0 -4 -33z"/>
<path d="M110 360 c-12 -12 -18 -25 -15 -31 8 -12 25 -2 25 16 0 8 8 19 18 24
9 6 11 11 5 11 -7 0 -22 -9 -33 -20z"/>
<path d="M187 351 c-15 -31 -15 -32 3 -26 30 9 15 -17 -17 -32 -15 -7 -41 -13
-59 -13 -27 0 -31 -3 -27 -20 3 -12 2 -20 -3 -18 -5 2 -20 -7 -34 -19 -13 -13
-30 -23 -37 -23 -7 0 -13 -6 -13 -14 0 -9 39 10 106 50 59 35 110 64 114 64 5
0 6 9 3 20 -3 11 -10 20 -17 20 -8 0 -7 3 1 8 7 4 9 13 4 21 -6 10 -13 5 -24
-18z"/>
<path d="M687 363 c-3 -4 3 -23 12 -42 12 -22 20 -29 23 -20 6 16 -27 75 -35
62z"/>
<path d="M1026 345 c-4 -14 -4 -31 0 -37 4 -7 3 -8 -4 -4 -7 4 -12 2 -12 -5 0
-6 -20 -31 -45 -56 l-46 -45 41 -29 c22 -16 43 -29 48 -29 17 0 43 106 40 168
-2 65 -11 80 -22 37z m9 -91 c-9 -52 -23 -84 -35 -84 -6 0 -22 7 -36 17 l-25
16 43 43 c24 23 47 43 52 43 4 1 5 -15 1 -35z"/>
<path d="M1685 360 c-4 -6 -12 -10 -18 -9 -26 3 -36 -2 -42 -20 -4 -13 -12
-17 -31 -13 -15 3 -32 -2 -43 -12 -10 -9 -20 -14 -23 -11 -3 3 -13 -4 -23 -15
-10 -11 -24 -20 -32 -20 -7 0 -13 -7 -13 -15 0 -18 -31 -20 -48 -3 -9 9 -12 8
-12 -5 0 -9 1 -17 3 -17 1 0 17 -4 34 -9 31 -9 34 -8 58 32 14 23 25 36 25 29
0 -8 14 -3 40 13 52 33 56 32 30 -10 -12 -19 -17 -35 -11 -35 6 0 22 23 36 50
14 28 30 50 36 50 6 0 6 -7 -1 -20 -7 -14 -7 -20 0 -20 5 0 10 7 10 15 0 8 3
15 8 15 4 0 13 9 20 20 7 11 10 20 8 20 -3 0 -8 -5 -11 -10z"/>
<path d="M316 350 c12 -5 26 -22 32 -39 6 -17 13 -31 16 -31 3 0 3 8 -1 18
-15 42 16 -8 38 -61 13 -32 30 -63 38 -70 8 -7 12 -7 10 -2 -69 151 -101 196
-137 194 -13 0 -12 -2 4 -9z"/>
<path d="M240 320 c0 -5 9 -14 20 -20 18 -10 133 -171 146 -205 9 -21 -116
-75 -195 -85 l-66 -7 80 -2 c54 0 89 4 109 14 15 8 35 15 42 15 8 0 14 4 14 8
0 6 22 18 70 37 3 1 17 7 33 13 15 7 38 14 50 16 12 3 46 9 75 15 29 6 61 15
70 21 43 24 -134 1 -198 -27 -40 -17 -67 -13 -80 15 -8 15 -14 29 -15 32 -9
29 -26 60 -33 60 -5 0 -26 25 -46 55 -24 36 -43 55 -56 55 -11 0 -20 -4 -20
-10z"/>
<path d="M1190 310 c0 -5 -10 -10 -22 -11 -22 0 -22 -1 -3 -9 32 -14 41 -11
41 10 0 11 -4 20 -8 20 -4 0 -8 -4 -8 -10z"/>
<path d="M1760 314 c0 -2 5 -13 12 -23 6 -11 8 -26 3 -37 -23 -53 -12 -58 14
-6 25 50 25 56 -4 64 -14 3 -25 4 -25 2z"/>
<path d="M2192 303 c-16 -29 -15 -32 8 -30 22 1 22 3 11 32 -8 19 -8 19 -19
-2z"/>
<path d="M2408 255 c2 -38 9 -79 14 -90 10 -25 -1 110 -12 139 -4 12 -5 -10
-2 -49z"/>
<path d="M1882 280 c24 -16 53 -38 62 -49 18 -20 18 -20 42 8 30 37 30 41 -3
41 -16 0 -53 7 -83 15 -30 8 -57 15 -59 15 -3 0 16 -13 41 -30z"/>
<path d="M2230 301 c0 -5 7 -14 15 -21 18 -15 42 1 31 19 -8 13 -46 15 -46 2z"/>
<path d="M2320 301 c0 -7 -4 -10 -9 -6 -5 3 -13 0 -17 -6 -3 -6 -1 -15 6 -19
14 -9 4 -31 -13 -29 -7 1 -31 1 -53 0 -36 -1 -42 -4 -46 -26 -3 -14 -1 -25 3
-25 5 0 9 -8 9 -17 1 -16 2 -16 15 1 11 15 18 17 26 9 9 -9 3 -22 -22 -51 -19
-22 -36 -36 -40 -31 -3 5 -11 -2 -17 -16 -6 -14 -18 -25 -26 -25 -17 0 -32 19
-17 21 26 3 30 4 37 12 4 4 0 7 -9 7 -30 0 -47 -12 -47 -35 0 -13 -4 -27 -10
-30 -14 -8 -13 -35 1 -35 21 0 158 119 158 138 1 7 5 11 10 8 4 -3 14 14 21
37 14 44 30 71 37 63 3 -2 11 -22 19 -43 l15 -38 -7 40 c-4 22 -8 52 -9 68 -2
27 -15 52 -15 28z"/>
<path d="M1074 291 c4 -6 14 -11 22 -11 8 0 14 -7 14 -15 0 -8 -8 -15 -18 -15
-11 0 -26 -14 -37 -33 -15 -28 -16 -37 -5 -56 9 -18 15 -20 23 -12 9 9 9 14
-2 20 -19 12 -9 46 14 46 30 0 29 -29 -4 -81 l-30 -49 42 -20 42 -20 23 39
c27 46 25 57 -3 15 -22 -32 -55 -39 -55 -11 0 23 37 82 51 82 7 0 18 -8 26
-17 13 -16 13 -16 3 5 -6 12 -15 22 -20 22 -6 0 -10 7 -10 15 0 8 -4 15 -9 15
-5 0 -7 9 -4 20 3 11 10 20 15 20 6 0 7 -8 4 -17 -4 -11 2 -8 13 7 18 23 19
26 3 32 -28 11 -30 9 -37 -22 -4 -17 -11 -30 -16 -30 -12 0 -11 17 2 42 13 24
12 24 -25 34 -21 5 -27 4 -22 -5z"/>
<path d="M492 274 c-27 -19 -29 -34 -2 -27 11 3 31 -2 45 -11 43 -29 55 -18
21 19 -37 40 -35 40 -64 19z"/>
<path d="M1300 266 c0 -18 7 -25 31 -30 44 -9 49 -8 49 8 0 22 -19 29 -38 15
-9 -7 -14 -10 -10 -5 7 8 -14 36 -26 36 -3 0 -6 -11 -6 -24z"/>
<path d="M1822 278 c-17 -23 -44 -80 -38 -85 2 -3 11 9 20 25 19 36 38 44 74
32 l27 -10 -30 25 c-34 29 -39 30 -53 13z"/>
<path d="M2463 137 c1 -110 2 -127 8 -77 10 95 10 208 1 214 -5 3 -9 -59 -9
-137z"/>
<path d="M2530 185 c-3 -55 -2 -120 1 -145 5 -41 6 -38 10 30 2 41 2 107 -1
145 l-5 70 -5 -100z"/>
<path d="M2014 248 c-46 -53 -46 -53 -23 -102 12 -26 22 -45 23 -44 1 2 10 14
21 28 15 18 15 21 3 11 -24 -18 -34 -8 -36 34 -1 26 5 41 23 57 25 22 32 38
17 38 -5 0 -17 -10 -28 -22z"/>
<path d="M2492 135 c-1 -80 1 -135 7 -135 10 0 18 141 13 223 -6 93 -17 44
-20 -88z"/>
<path d="M1229 242 c17 -12 10 -35 -40 -134 l-39 -76 32 -11 c42 -15 45 -14
51 10 5 17 3 18 -9 8 -12 -10 -18 -9 -31 4 -20 20 -13 30 21 30 17 0 23 4 19
14 -3 8 -12 12 -19 9 -18 -7 -18 18 0 33 11 10 16 9 24 -5 8 -15 10 -15 15 0
4 9 2 16 -4 16 -6 0 -9 16 -7 38 3 32 6 37 26 35 26 -3 30 12 5 20 -10 2 -27
8 -38 12 -14 5 -16 4 -6 -3z"/>
<path d="M1310 214 c0 -8 8 -14 18 -14 9 0 27 -3 40 -6 12 -4 22 -2 22 4 0 5
-18 14 -40 20 -32 8 -40 7 -40 -4z"/>
<path d="M1903 204 c-17 -18 -19 -26 -9 -39 10 -14 14 -13 36 10 21 22 22 27
9 38 -12 11 -18 10 -36 -9z"/>
<path d="M1533 210 c-18 -4 -39 -12 -46 -19 -9 -7 -24 -8 -47 -1 -19 5 -36 7
-39 5 -8 -8 33 -34 43 -27 6 3 21 7 34 8 13 2 29 7 35 12 14 12 106 9 162 -5
65 -16 158 -68 216 -121 33 -30 68 -52 89 -56 l35 -8 -45 41 c-25 22 -51 40
-59 41 -7 0 -11 6 -7 15 3 9 0 15 -9 15 -8 0 -37 13 -63 30 -27 17 -57 30 -66
30 -9 0 -16 4 -16 9 0 21 -157 43 -217 31z"/>
<path d="M2614 110 l-1 -115 8 79 c5 43 5 95 1 115 -6 25 -8 0 -8 -79z"/>
<path d="M2667 125 c-9 -96 -9 -125 3 -125 5 0 7 6 4 13 -3 8 -1 40 4 72 5 32
6 70 2 84 -5 20 -8 9 -13 -44z"/>
<path d="M937 150 c27 -26 31 -35 22 -52 -10 -19 -9 -19 21 -3 18 9 29 12 26
6 -4 -7 1 -11 12 -11 11 0 23 7 26 16 9 23 9 23 -21 19 -17 -2 -40 6 -58 19
-51 38 -61 40 -28 6z"/>
<path d="M1513 160 c-9 -23 -7 -25 41 -43 73 -26 75 -26 104 12 15 19 20 31
12 26 -8 -5 -21 -17 -28 -27 -10 -13 -20 -16 -40 -11 -34 8 -70 33 -75 53 -3
11 -7 8 -14 -10z"/>
<path d="M1936 161 c-17 -18 -16 -19 3 -26 11 -3 25 -21 31 -41 9 -26 15 -33
23 -25 8 8 6 21 -6 46 -9 20 -17 42 -17 50 0 20 -14 19 -34 -4z"/>
<path d="M1376 146 c-9 -34 -7 -39 10 -25 9 7 32 12 51 11 19 -2 41 2 49 9 25
21 15 28 -21 13 -40 -16 -48 -17 -41 -5 3 5 -5 11 -18 13 -19 4 -26 0 -30 -16z"/>
<path d="M2405 150 c2 -14 5 -53 5 -87 0 -37 4 -63 10 -63 12 0 3 123 -12 155
-7 17 -8 16 -3 -5z"/>
<path d="M2925 160 c17 -4 41 -8 55 -8 l25 0 -25 8 c-14 4 -38 8 -55 8 l-30 0
30 -8z"/>
<path d="M1350 130 c0 -11 -5 -20 -11 -20 -6 0 -17 -7 -25 -15 -14 -13 -14
-15 0 -15 21 0 46 28 46 51 0 10 -2 19 -5 19 -3 0 -5 -9 -5 -20z"/>
<path d="M1480 105 c0 -13 12 -19 32 -16 4 0 2 -10 -4 -24 -10 -23 -12 -23
-40 -9 -16 8 -26 19 -24 23 8 12 -67 2 -79 -10 -7 -7 2 -8 27 -4 29 6 42 2 67
-16 l31 -23 35 34 c38 37 36 44 -12 53 -25 5 -33 3 -33 -8z"/>
<path d="M2031 97 c-10 -20 -10 -30 3 -60 16 -40 23 -46 23 -22 0 8 -4 15 -8
15 -4 0 -6 20 -5 45 1 25 2 45 1 45 -1 0 -7 -11 -14 -23z"/>
<path d="M2583 55 c0 -33 2 -45 4 -27 2 18 2 45 0 60 -2 15 -4 0 -4 -33z"/>
<path d="M907 86 c-3 -8 1 -22 8 -33 8 -10 15 -26 15 -35 0 -10 5 -18 10 -18
12 0 4 41 -15 77 -9 18 -14 20 -18 9z"/>
<path d="M1264 88 c3 -10 1 -20 -4 -23 -6 -4 -10 -15 -10 -26 0 -11 4 -18 9
-15 13 9 19 53 9 68 -7 10 -8 9 -4 -4z"/>
<path d="M2717 93 c-11 -10 -8 -93 3 -93 6 0 10 23 10 50 0 51 -1 55 -13 43z"/>
<path d="M811 72 c-13 -25 -15 -72 -2 -72 8 0 23 81 16 88 -2 2 -8 -5 -14 -16z"/>
<path d="M1548 59 c-13 -17 -34 -37 -48 -44 l-25 -13 27 1 c14 1 25 4 22 6 -2
2 8 12 22 23 25 20 25 20 89 -6 36 -14 80 -26 98 -25 28 0 21 6 -58 44 -49 25
-93 45 -97 45 -4 0 -18 -14 -30 -31z"/>
<path d="M971 66 c-9 -11 -8 -15 4 -20 9 -3 14 -10 10 -15 -3 -5 -1 -12 3 -15
11 -7 34 42 27 55 -9 13 -31 11 -44 -5z"/>
<path d="M1806 50 c-15 -18 -31 -28 -37 -24 -8 4 -9 3 -5 -4 12 -20 34 -13 56
19 30 41 19 48 -14 9z"/>
<path d="M2760 40 c0 -22 5 -40 10 -40 6 0 9 18 8 40 -4 52 -18 52 -18 0z"/>
<path d="M661 52 c1 -20 17 -62 18 -47 1 6 4 20 7 31 4 14 0 23 -10 27 -11 4
-16 1 -15 -11z"/>
<path d="M1836 35 c-18 -23 -22 -35 -13 -35 7 0 21 16 30 35 9 19 15 35 13 35
-2 0 -16 -16 -30 -35z"/>
<path d="M760 45 c0 -8 -4 -15 -10 -15 -5 0 -10 -7 -10 -15 0 -8 7 -15 15 -15
10 0 15 10 15 30 0 17 -2 30 -5 30 -3 0 -5 -7 -5 -15z"/>
<path d="M1026 44 c-8 -22 -8 -26 3 -19 5 3 11 -3 14 -12 3 -14 6 -12 15 10
13 30 32 28 32 -4 0 -23 13 -25 29 -5 10 12 7 18 -18 30 -38 20 -67 20 -75 0z"/>
<path d="M1303 53 c-7 -2 -13 -9 -13 -14 0 -15 53 -6 58 9 4 12 -21 15 -45 5z"/>
<path d="M600 41 c0 -18 12 -41 21 -41 15 0 10 37 -6 44 -8 3 -15 1 -15 -3z"/>
<path d="M1325 10 c11 -5 36 -8 55 -8 32 0 33 1 10 8 -14 4 -38 8 -55 8 -25 1
-27 -1 -10 -8z"/>
</g>
</svg>
