<?xml version="1.0" encoding="UTF-8"?>
<svg version="1.1" xmlns="http://www.w3.org/2000/svg" width="1280" height="720">
<path d="M0 0 C422.4 0 844.8 0 1280 0 C1280 237.6 1280 475.2 1280 720 C857.6 720 435.2 720 0 720 C0 482.4 0 244.8 0 0 Z " fill="#1A1C2B" transform="translate(0,0)"/>
<path d="M0 0 C422.07 0 844.14 0 1279 0 C1275.39376027 2.88499179 1272.44480034 5.00921249 1268.484375 7.1796875 C1267.4109082 7.77152832 1266.33744141 8.36336914 1265.23144531 8.97314453 C1263.50812988 9.91456299 1263.50812988 9.91456299 1261.75 10.875 C1260.53972885 11.54094044 1259.32977274 12.20745372 1258.12011719 12.87451172 C1256.25567043 13.9025513 1254.39103962 14.93023984 1252.52545166 15.95620728 C1246.4167542 19.31570225 1240.33088436 22.7154368 1234.25 26.125 C1233.22293945 26.70040527 1232.19587891 27.27581055 1231.13769531 27.86865234 C1223.30193308 32.26187828 1215.48066657 36.6804798 1207.66308594 41.10595703 C1199.56818232 45.68585882 1191.45339963 50.22976539 1183.3359375 54.76953125 C1176.38030205 58.66158037 1169.43614796 62.57333772 1162.5 66.5 C1153.46059691 71.61734803 1144.40185704 76.6993318 1135.3359375 81.76953125 C1128.38030205 85.66158037 1121.43614796 89.57333772 1114.5 93.5 C1105.46059691 98.61734803 1096.40185704 103.6993318 1087.3359375 108.76953125 C1080.38030205 112.66158037 1073.43614796 116.57333772 1066.5 120.5 C1057.46059691 125.61734803 1048.40185704 130.6993318 1039.3359375 135.76953125 C1032.38030205 139.66158037 1025.43614796 143.57333772 1018.5 147.5 C1010.51221945 152.022008 1002.51118905 156.51959508 994.5 161 C982.64605716 167.63040428 970.81942301 174.30830048 959 181 C946.1290948 188.28700801 933.24531658 195.54975233 920.33642578 202.76928711 C913.38060424 206.66137612 906.43630615 210.57324817 899.5 214.5 C890.46059691 219.61734803 881.40185704 224.6993318 872.3359375 229.76953125 C865.38030205 233.66158037 858.43614796 237.57333772 851.5 241.5 C842.46059691 246.61734803 833.40185704 251.6993318 824.3359375 256.76953125 C817.38030175 260.66158054 810.43617675 264.57338817 803.5 268.5 C795.07346401 273.26965387 786.63502813 278.01764049 778.1875 282.75 C777.10082031 283.35908203 776.01414062 283.96816406 774.89453125 284.59570312 C773.89164063 285.15708984 772.88875 285.71847656 771.85546875 286.296875 C770.96496826 286.79541992 770.07446777 287.29396484 769.15698242 287.80761719 C767.78596095 288.56551972 766.40117555 289.29941223 765 290 C764.93006836 289.33170166 764.86013672 288.66340332 764.78808594 287.97485352 C760.6596111 249.28865483 749.21360098 215.1912054 718.29589844 189.58886719 C690.38074672 167.60429025 655.39558312 159.30030783 620.2421875 163.4609375 C616.41244639 164.11856981 612.7432247 164.95868143 609 166 C607.9469165 166.29003906 607.9469165 166.29003906 606.87255859 166.5859375 C575.31500249 175.51771141 548.49831524 196.61550741 532 225 C516.3362979 253.4009958 511.95101116 287.76106025 520.5234375 319.15234375 C529.01156554 347.77601137 546.1955853 372.20606358 571.00390625 388.87890625 C573.64517047 390.74879735 575.80620073 392.63455874 578 395 C567.44429055 401.3274704 556.75868111 407.39319482 545.98892212 413.34887695 C538.4206264 417.53476497 530.87501479 421.75521596 523.375 426.0625 C512.69455663 432.19386564 501.949744 438.20769564 491.19824219 444.21337891 C485.92242851 447.16058535 480.64835522 450.11089729 475.375 453.0625 C474.33891602 453.64241699 473.30283203 454.22233398 472.23535156 454.81982422 C464.36622279 459.22757142 456.51262311 463.6623324 448.66357422 468.10571289 C440.56847336 472.68563509 432.45355836 477.22967662 424.3359375 481.76953125 C417.38030205 485.66158037 410.43614796 489.57333772 403.5 493.5 C394.46059691 498.61734803 385.40185704 503.6993318 376.3359375 508.76953125 C369.38030205 512.66158037 362.43614796 516.57333772 355.5 520.5 C346.46059691 525.61734803 337.40185704 530.6993318 328.3359375 535.76953125 C321.38030205 539.66158037 314.43614796 543.57333772 307.5 547.5 C298.46059691 552.61734803 289.40185704 557.6993318 280.3359375 562.76953125 C273.38030205 566.66158037 266.43614796 570.57333772 259.5 574.5 C250.46059691 579.61734803 241.40185704 584.6993318 232.3359375 589.76953125 C225.38030205 593.66158037 218.43614796 597.57333772 211.5 601.5 C202.46059691 606.61734803 193.40185704 611.6993318 184.3359375 616.76953125 C177.38030205 620.66158037 170.43614796 624.57333772 163.5 628.5 C154.46059691 633.61734803 145.40185704 638.6993318 136.3359375 643.76953125 C129.38030205 647.66158037 122.43614796 651.57333772 115.5 655.5 C106.46059691 660.61734803 97.40185704 665.6993318 88.3359375 670.76953125 C81.38030205 674.66158037 74.43614796 678.57333772 67.5 682.5 C58.47316942 687.61023054 49.42794095 692.68679618 40.37329102 697.74755859 C35.10377038 700.69472886 29.84078969 703.6526542 24.58984375 706.6328125 C23.03910156 707.51259766 23.03910156 707.51259766 21.45703125 708.41015625 C19.5067896 709.51773204 17.55750097 710.62698839 15.609375 711.73828125 C14.28486328 712.49044922 14.28486328 712.49044922 12.93359375 713.2578125 C12.17103271 713.6923877 11.40847168 714.12696289 10.62280273 714.57470703 C7.12930476 716.47315636 3.55624948 718.22187526 0 720 C0 482.4 0 244.8 0 0 Z " fill="#0C0D16" transform="translate(0,0)"/>
<path d="M0 0 C0.65822754 0.16628906 1.31645508 0.33257812 1.99462891 0.50390625 C23.46401014 6.09516059 42.22861862 17.59753982 58 33 C58.71671875 33.65484375 59.4334375 34.3096875 60.171875 34.984375 C74.37098795 48.27474472 84.63572334 67.48141258 90 86 C90.19464844 86.65532715 90.38929688 87.3106543 90.58984375 87.98583984 C96.31845639 108.00322242 96.1860675 130.86216531 91 151 C90.83371094 151.65145996 90.66742187 152.30291992 90.49609375 152.97412109 C85.03029108 173.76947588 74.88509863 191.50082964 60 207 C59.15695312 207.90621094 58.31390625 208.81242188 57.4453125 209.74609375 C36.29477554 231.84687222 6.38047485 244.30728104 -24.01953125 245.28125 C-60.31181673 245.9606871 -90.47305264 235.05802845 -117 210 C-117.75023437 209.31421875 -118.50046875 208.6284375 -119.2734375 207.921875 C-134.2328946 193.74975775 -144.52494941 174.72628523 -150 155 C-150.19464844 154.35611328 -150.38929688 153.71222656 -150.58984375 153.04882812 C-159.30056768 123.87074959 -154.65576033 89.92904019 -140.6875 63.125 C-134.59648032 51.88882695 -126.74138539 42.29587626 -118 33 C-117.4740625 32.40960938 -116.948125 31.81921875 -116.40625 31.2109375 C-101.83423229 15.52371435 -81.35002558 5.60478097 -61 0 C-59.77667969 -0.3403125 -58.55335938 -0.680625 -57.29296875 -1.03125 C-38.9813658 -5.24350371 -18.18709899 -4.63556069 0 0 Z " fill="#5498FE" transform="translate(670,165)"/>
<path d="M0 0 C0.9148114 -0.00100708 1.8296228 -0.00201416 2.77215576 -0.00305176 C18.58901024 0.00863972 34.02318638 0.91550882 49.6875 3.25 C50.74582031 3.4051709 51.80414062 3.5603418 52.89453125 3.72021484 C59.85225451 4.76196187 66.77197016 5.95977001 73.6875 7.25 C74.44546875 7.3845459 75.2034375 7.5190918 75.984375 7.65771484 C118.56032675 15.32022076 161.64013089 34.9609718 192.6875 65.25 C193.3371875 65.82621094 193.986875 66.40242188 194.65625 66.99609375 C207.30053224 78.47734059 216.0821742 95.58872842 220.125 112 C220.2892749 112.66056396 220.4535498 113.32112793 220.62280273 114.00170898 C221.51230964 118.04859167 221.75794431 121.87084298 221.72680664 126.01660156 C221.7182943 127.49027191 221.7182943 127.49027191 221.70960999 128.99371338 C221.70231369 129.73828796 221.6950174 130.48286255 221.6875 131.25 C195.16676138 131.43240992 168.64592174 131.59660304 142.125 131.75 C140.58686465 131.75892281 140.58686465 131.75892281 139.01765585 131.76802588 C57.15307693 132.24161037 -24.70966973 132.33795955 -106.57530326 132.31315851 C-108.75703966 132.31249787 -110.93877607 132.31185518 -113.12051249 132.31121445 C-150.18451435 132.30020852 -187.24850838 132.28001858 -224.3125 132.25 C-224.31863416 130.48275174 -224.32301925 128.71549734 -224.32666016 126.94824219 C-224.32928864 125.96410339 -224.33191711 124.9799646 -224.33462524 123.96600342 C-224.13873137 99.91888183 -208.63028485 77.92711378 -192.12841797 61.64868164 C-155.46743628 26.82248542 -102.45973333 9.76943046 -53.36669922 3.65722656 C-50.26269876 3.24335983 -47.18548511 2.73092233 -44.09765625 2.2109375 C-29.53739681 -0.04228108 -14.70171485 0.0113824 0 0 Z " fill="#5498FE" transform="translate(641.3125,425.75)"/>
</svg>
